<svg id="visual" viewBox="0 0 900 600" width="900" height="600" xmlns="http://www.w3.org/2000/svg" xmlns:xlink="http://www.w3.org/1999/xlink" version="1.1"><rect x="0" y="0" width="900" height="600" fill="#001220"></rect><defs><linearGradient id="grad1_0" x1="33.3%" y1="100%" x2="100%" y2="0%"><stop offset="20%" stop-color="#001220" stop-opacity="1"></stop><stop offset="80%" stop-color="#001220" stop-opacity="1"></stop></linearGradient></defs><defs><linearGradient id="grad2_0" x1="0%" y1="100%" x2="66.7%" y2="0%"><stop offset="20%" stop-color="#001220" stop-opacity="1"></stop><stop offset="80%" stop-color="#001220" stop-opacity="1"></stop></linearGradient></defs><g transform="translate(900, 600)"><path d="M-486.7 0C-454.1 -59 -421.4 -117.9 -384.3 -159.2C-347.2 -200.5 -305.7 -224.1 -276.5 -276.5C-247.2 -328.8 -230.3 -409.9 -186.3 -449.7C-142.2 -489.5 -71.1 -488.1 0 -486.7L0 0Z" fill="#FBAE3C"></path></g><g transform="translate(0, 0)"><path d="M486.7 0C441 45.9 395.2 91.8 379.7 157.3C364.3 222.8 379.1 307.9 344.2 344.2C309.2 380.4 224.5 367.8 158.8 383.4C93.1 399 46.6 442.9 0 486.7L0 0Z" fill="#FBAE3C"></path></g></svg>